<?xml version="1.0" encoding="iso-8859-1"?>
<!-- Uploaded to: SVG Repo, www.svgrepo.com, Generator: SVG Repo Mixer Tools -->
<svg height="800px" width="800px" version="1.1" id="Layer_1" xmlns="http://www.w3.org/2000/svg" xmlns:xlink="http://www.w3.org/1999/xlink" 
	 viewBox="0 0 512 512" xml:space="preserve">
<path style="fill:#47CEAC;" d="M512,256.006C512,397.402,397.394,512.004,256.004,512C114.606,512.004,0,397.402,0,256.006
	C-0.007,114.61,114.606,0,256.004,0C397.394,0,512,114.614,512,256.006z"/>
<path style="fill:#36BB9A;" d="M512,256.005c0-18.007-1.88-35.575-5.417-52.533c-0.028-0.016-0.054-0.03-0.081-0.048
	c-0.211-0.3-0.297-0.666-0.56-0.928c-0.261-0.263-97.953-97.955-98.217-98.219c-1.5-1.5-3.657-2.163-5.732-1.763
	c-14.928,2.867-34.706,7.914-52.508,15.986c-0.1-0.078-0.222-0.113-0.325-0.187c-0.259-0.356-0.427-0.771-0.759-1.073
	c-0.212-0.191-0.496-0.254-0.731-0.414c-0.258-0.356-0.425-0.773-0.757-1.073c-0.212-0.193-0.496-0.255-0.73-0.417
	c-0.259-0.356-0.427-0.771-0.757-1.073c-0.213-0.191-0.497-0.254-0.732-0.414c-0.258-0.356-0.425-0.773-0.757-1.073
	c-1.409-1.276-3.312-1.862-5.199-1.6c-13.485,1.914-31.06,8.871-49.467,19.281c-0.383-0.449-0.731-0.933-1.232-1.267
	c-0.02-0.013-0.046-0.013-0.067-0.026c-0.418-0.537-0.843-1.078-1.421-1.462c-0.021-0.014-0.046-0.012-0.067-0.026
	c-0.418-0.537-0.843-1.077-1.421-1.462c-0.02-0.013-0.046-0.013-0.066-0.026c-0.418-0.537-0.843-1.077-1.422-1.461
	c-1.535-1.02-3.438-1.321-5.209-0.851c-11.462,3.093-30.153,14.335-42.017,23.815c-0.179-0.156-0.378-0.263-0.571-0.399
	c-0.429-0.585-0.913-1.09-1.489-1.488c-0.428-0.585-0.911-1.087-1.486-1.486c-1.739-2.384-4.86-3.364-7.632-2.166
	c-11.62,5.01-28.055,19.406-39.856,32.768c-0.364-0.412-0.709-0.815-1.163-1.12c-0.432-0.573-0.898-1.093-1.488-1.488
	c-0.896-1.189-2.101-2.111-3.569-2.454c-1.747-0.406-3.569-0.067-5.038,0.932c-11.284,7.625-21.931,22.362-28.553,39.031
	c-1.25-1.093-2.288-1.977-2.719-2.276c-2.741-1.911-6.5-1.399-8.615,1.2c-8,9.787-12.544,30.018-14.647,42.076
	c-1.172-0.633-2.209-1.169-2.893-1.488c-1.606-0.743-3.462-0.781-5.113-0.094c-1.644,0.676-2.931,2.006-3.553,3.676
	c-4.797,12.855,0.222,32.5,3.885,46.836c0.149,0.589,0.297,1.164,0.441,1.718c-1.359-0.161-2.515-0.282-3.268-0.305
	c-1.959-0.156-3.797,0.742-5.062,2.206c-1.269,1.469-1.804,3.424-1.456,5.331c3.372,18.549,11.878,36.37,25.284,52.963
	c0.138,0.175,0.284,0.336,0.441,0.492l5.044,5.07c-4.985,6.412-14.706,18.938-24.85,32.063c-2.163,2.793-1.647,6.813,1.15,8.974
	c0.116,0.09,97.75,97.857,98.218,98.219c0.116,0.089,0.254,0.119,0.373,0.199c0.246,0.329,0.523,0.634,0.81,0.934
	c15.252,2.832,30.957,4.384,47.03,4.384C397.394,512.004,512,397.401,512,256.005z"/>
<path style="fill:#F4F6F9;" d="M407.726,104.276c-1.5-1.5-3.657-2.162-5.731-1.762c-15.916,3.056-37.422,8.45-56.081,17.506
	c0.05-0.868,0.094-1.637,0.118-2.225c0.084-1.9-0.685-3.744-2.094-5.019s-3.312-1.862-5.2-1.6
	c-14.134,2.006-32.732,9.431-52.103,20.7c-0.091-1.125-0.178-2.075-0.259-2.675c-0.246-1.825-1.268-3.456-2.8-4.475
	c-1.534-1.019-3.438-1.318-5.21-0.85c-11.815,3.187-31.375,15.05-43.153,24.7c-0.75-1.493-1.446-2.837-1.934-3.694
	c-1.606-2.85-5.1-4.031-8.107-2.732c-11.844,5.106-28.719,19.969-40.559,33.543c-0.569-1.187-1.056-2.156-1.409-2.775
	c-0.881-1.55-2.369-2.656-4.107-3.062c-1.747-0.406-3.569-0.068-5.038,0.931c-11.284,7.625-21.932,22.363-28.554,39.031
	c-1.25-1.093-2.288-1.975-2.719-2.275c-2.74-1.913-6.5-1.401-8.615,1.2c-8,9.788-12.544,30.019-14.646,42.075
	c-1.172-0.631-2.209-1.169-2.894-1.488c-1.606-0.743-3.462-0.781-5.113-0.094c-1.644,0.675-2.931,2.006-3.553,3.675
	c-4.797,12.857,0.222,32.5,3.885,46.837c0.15,0.588,0.297,1.163,0.441,1.718c-1.359-0.162-2.515-0.282-3.268-0.306
	c-1.959-0.156-3.797,0.743-5.062,2.206c-1.268,1.469-1.803,3.425-1.456,5.331c3.372,18.55,11.878,36.369,25.284,52.962
	c0.138,0.175,0.285,0.337,0.441,0.494l5.044,5.069c-4.985,6.413-14.706,18.938-24.85,32.063c-2.162,2.794-1.647,6.813,1.15,8.975
	c1.163,0.9,2.541,1.338,3.909,1.338c1.913,0,3.806-0.857,5.066-2.487c9.493-12.282,18.615-24.031,23.825-30.737l6.572,6.601
	c0.156,0.156,0.322,0.306,0.494,0.45c16.797,13.687,34.853,22.369,53.668,25.788c1.903,0.375,3.862-0.188,5.328-1.45
	c1.466-1.262,2.278-3.125,2.215-5.056c-0.025-0.756-0.147-1.913-0.309-3.268c0.572,0.144,1.159,0.293,1.759,0.444
	c14.347,3.657,33.981,8.644,46.847,3.875c1.668-0.625,3.003-1.913,3.681-3.556c0.678-1.65,0.644-3.5-0.103-5.119
	c-0.313-0.682-0.847-1.707-1.478-2.875c12.063-2.1,32.313-6.644,42.1-14.619c2.591-2.107,3.122-5.856,1.225-8.601
	c-0.306-0.444-1.187-1.482-2.285-2.737c16.688-6.612,31.431-17.25,39.059-28.518c1.001-1.482,1.338-3.307,0.931-5.044
	c-0.406-1.744-1.522-3.231-3.075-4.112c-0.622-0.35-1.578-0.831-2.763-1.401c13.59-11.831,28.463-28.688,33.578-40.512
	c1.3-3.006,0.118-6.512-2.737-8.118c-0.868-0.487-2.206-1.175-3.691-1.919c9.65-11.769,21.519-31.3,24.719-43.1
	c0.481-1.781,0.172-3.681-0.847-5.213c-1.019-1.537-2.65-2.562-4.478-2.806c-0.609-0.081-1.556-0.169-2.672-0.262
	c11.266-19.338,18.697-37.913,20.709-52.037c0.266-1.882-0.316-3.781-1.587-5.187c-1.271-1.412-3.153-2.293-5.003-2.107
	c-0.597,0.025-1.372,0.063-2.25,0.112c9.062-18.65,14.457-40.131,17.503-56.019C409.885,107.92,409.226,105.776,407.726,104.276z
	 M375.357,169.839c-1.244,2.031-1.253,4.581-0.031,6.625c1.219,2.044,3.435,3.206,5.853,3.1l4.259-0.282
	c0.353-0.025,0.716-0.05,1.085-0.075c-3.619,13.657-11.794,31.082-22.816,48.356c-1.247,1.95-1.341,4.425-0.25,6.463
	c1.09,2.044,3.2,3.331,5.513,3.381c0.562,0.013,2.125,0.087,3.963,0.194c-5.806,12.656-17.637,30.156-24.403,36.319
	c-1.594,1.45-2.35,3.606-2.013,5.738c0.34,2.131,1.731,3.943,3.697,4.831c1.009,0.457,2.994,1.394,5.022,2.381
	c-7.391,11.882-23.14,28.019-34.837,36.669c-1.806,1.331-2.781,3.519-2.565,5.756c0.219,2.238,1.59,4.201,3.622,5.169l2.138,0.975
	c0.562,0.256,1.31,0.594,2.131,0.969c-8.525,8.756-22.097,16.562-36.641,20.794c-2.138,0.619-3.797,2.306-4.384,4.457
	c-0.588,2.144-0.019,4.444,1.503,6.068c0.638,0.675,1.828,1.987,3.085,3.381c-10.484,4.907-28.006,8.437-39.1,9.806
	c-2.091,0.256-3.919,1.525-4.894,3.388c-0.972,1.869-0.965,4.094,0.019,5.956c0.219,0.413,0.759,1.375,1.438,2.575l0.066,0.112
	c-9.66,0.313-22.363-3.125-31.553-5.462c-4.309-1.1-8.031-2.05-10.91-2.544c-1.822-0.313-3.666,0.169-5.1,1.318
	c-1.431,1.156-2.3,2.863-2.381,4.7c-0.05,1.143-0.01,2.413,0.084,3.712c-13.572-3.825-26.713-10.85-39.172-20.956l-8.913-8.957
	l1.885-2.48c36.603-48.225,122.322-161.163,197.566-196.481c3.2-1.5,4.578-5.312,3.075-8.512s-5.328-4.575-8.512-3.075
	c-78.097,36.656-165.15,151.356-202.322,200.332l-0.804,1.059l-2.218-2.228c-9.856-12.262-16.722-25.181-20.484-38.512
	c1.297,0.087,2.578,0.125,3.725,0.081c1.838-0.081,3.547-0.95,4.7-2.387c1.15-1.431,1.628-3.287,1.315-5.1
	c-0.497-2.868-1.444-6.575-2.541-10.863c-2.347-9.194-5.616-21.981-5.482-31.55c0.025,0.013,0.053,0.031,0.081,0.044
	c1.234,0.693,2.219,1.25,2.641,1.469c1.862,0.988,4.091,0.988,5.947,0.006c1.862-0.975,3.129-2.8,3.385-4.887
	c1.359-11.088,4.897-28.594,9.809-39.062c1.409,1.263,2.725,2.457,3.409,3.093c1.625,1.525,3.916,2.094,6.063,1.493
	c2.144-0.588,3.828-2.244,4.45-4.381c4.235-14.525,12.05-28.087,20.825-36.612c0.4,0.881,0.759,1.675,1.028,2.269l0.91,1.994
	c0.962,2.031,2.922,3.412,5.159,3.631c2.256,0.212,4.431-0.75,5.769-2.562c8.656-11.687,24.816-27.425,36.719-34.806
	c0.972,1.987,1.906,3.95,2.381,5.012c0.884,1.969,2.697,3.362,4.828,3.7c2.134,0.356,4.29-0.419,5.744-2.006
	c6.169-6.769,23.694-18.601,36.366-24.387c0.107,1.844,0.185,3.412,0.194,3.963c0.047,2.313,1.341,4.419,3.378,5.513
	c2.041,1.093,4.518,0.994,6.46-0.244c17.3-11.019,34.747-19.194,48.413-22.806c-0.013,0.206-0.025,0.406-0.041,0.606l-0.309,4.75
	c-0.131,2.375,1.066,4.625,3.106,5.844c2.041,1.219,4.591,1.206,6.619-0.031c15.812-9.657,36.112-15.806,52.837-19.581
	C391.169,133.757,385.02,154.026,375.357,169.839z"/>
</svg>